<?xml version="1.0" encoding="UTF-8"?>
<svg id="a" data-name="圖層 3" xmlns="http://www.w3.org/2000/svg" viewBox="0 0 518.3 318.84">
  <path d="M370.76,287.76c-5.27,0-10.65-.9-16-3.03-13.74-5.48-24.91-18.22-28.46-32.46-5.28-21.17,5.61-45.92,31.51-71.58,20.34-20.15,49.05-39.64,76.81-52.14,1.36-.61,2.73-1.21,4.1-1.8,.14-8.08-.77-15.47-3.05-23.6-6.08-21.7-18.11-36.51-24.74-43.41-16.48-17.15-34.17-23.5-42.67-26.56-14.06-5.06-42.55-12.13-75.33-2.71-13.66,3.92-39.65,14.24-60.21,39.22-15.75,19.13-19.82,36.5-24.13,54.88-4.88,20.82-9.93,42.36-32.48,62.3-17.14,15.16-35.72,23.5-55.23,24.8-31.41,2.09-62.97-14.9-88.85-47.87-13.78-17.55-24.42-39.9-29.18-61.31C-3.31,74.78,.56,50.21,14.05,31.43c1.85-2.58,18.97-25.37,48.56-30.24,48.24-7.95,92.06,24.15,117.21,85.86,2.5,6.14-.45,13.14-6.58,15.64-6.14,2.5-13.14-.45-15.64-6.58C136.65,44.75,103.46,18.78,66.5,24.87c-20.4,3.36-32.46,19.86-32.96,20.56-22.25,30.97-1.16,79.95,17.37,103.55,20.83,26.54,45.11,40.29,68.37,38.74,21.23-1.42,36.06-14.53,40.93-18.84,16.83-14.88,20.44-30.29,25.01-49.8,4.53-19.32,9.66-41.21,28.97-64.66,24.68-29.98,55.77-42.34,72.11-47.03,39.26-11.28,73.29-2.84,90.07,3.19,9.42,3.39,31.47,11.32,51.85,32.51,8.19,8.52,23.05,26.81,30.55,53.56,2.09,7.46,3.27,14.42,3.73,21.4,13.74-4.19,27.92-7.14,42.41-8.82,6.59-.77,12.54,3.96,13.3,10.54,.76,6.58-3.96,12.54-10.54,13.3-15.91,1.84-31.41,5.39-46.27,10.58-1.34,10.42-3.59,21.98-6.32,35.93l-.46,2.35c-7.78,39.88-12.48,63.96-34.27,83.44-6.69,5.98-27.09,22.36-49.61,22.36Zm64.63-132.99c-22.32,11.27-44.48,26.9-60.69,42.96-19,18.82-28.15,36.58-25.12,48.72,1.69,6.78,7.48,13.35,14.07,15.98,6.33,2.53,14.36,1.39,23.86-3.38,8.11-4.07,14.49-9.43,16.86-11.55,15.17-13.56,18.93-30.28,26.71-70.14l.46-2.36c1.47-7.55,2.78-14.22,3.85-20.24Z" fill="#f6b55a"/>
  <path d="M164,301.56c-11.64,0-23.65-5.04-32.8-13.91-8-7.76-12.25-17.23-11.66-25.97,.41-6.07,2.97-11.42,7.2-16.18-5.6-.38-9.95-.53-12.06-.58-6.63-.16-11.86-5.67-11.7-12.29,.16-6.63,5.69-11.88,12.29-11.7,5.47,.13,24.76,.84,43.48,4.29,.64,.12,1.27,.24,1.89,.36,15.75-5.81,34.49-10.45,53.38-14.75,25.9-5.9,52.56-9.05,79.24-9.37,.05,0,.1,0,.15,0,6.56,0,11.92,5.28,12,11.86,.08,6.63-5.23,12.06-11.86,12.14-24.98,.3-49.94,3.25-74.19,8.77-6.36,1.45-14.22,3.24-22.49,5.36,5.69,4.51,9.14,9.84,10.42,16.04,1.71,8.3-.94,17.99-7.27,26.6-7.94,10.79-19.95,17.95-32.15,19.15-1.28,.13-2.57,.19-3.87,.19Zm-1.44-51.02c-17.87,7.51-19.07,12.71-19.07,12.76-.06,.83,.98,3.78,4.42,7.12,5.01,4.86,11.91,7.63,17.6,7.07,5.37-.53,11.32-4.26,15.17-9.49,2.74-3.73,3.27-6.68,3.1-7.52-.25-1.2-4.69-5.91-21.22-9.93Z" fill="#f6b55a"/>
  <circle cx="49.77" cy="67.66" r="13.19" fill="#f6b55a"/>
  <circle cx="108.84" cy="67.66" r="13.19" fill="#f6b55a"/>
  <path d="M79.26,130.19c-22.61,0-35.64-15.94-38.03-19.16-3.96-5.32-2.86-12.83,2.46-16.79,5.32-3.96,12.83-2.86,16.79,2.46,.29,.39,7.34,9.62,19.1,9.49,12.19-.16,18.97-10.15,19.26-10.58,3.67-5.51,11.11-7.03,16.63-3.37,5.52,3.66,7.04,11.07,3.4,16.6-1.42,2.15-14.59,21.04-38.97,21.35-.21,0-.42,0-.63,0Z" fill="#f6b55a"/>
  <path d="M324.74,145.02c-10.53,0-16.95-8.25-22.17-14.95-3.83-4.92-8.18-10.51-14.57-14.88-9.57-6.54-22.1-9.28-37.25-8.15-6.6,.5-12.37-4.46-12.86-11.07-.5-6.61,4.46-12.37,11.07-12.86,20.72-1.55,38.42,2.58,52.59,12.27,9.49,6.49,15.54,14.27,19.96,19.95,.83,1.07,1.8,2.32,2.71,3.42,.54-1,1.1-2.06,1.59-2.99,3.13-6.01,7.42-14.23,15.33-21.73,12.66-12.01,30.32-18.27,52.49-18.61,6.59-.12,12.08,5.19,12.18,11.81,.1,6.63-5.19,12.08-11.82,12.18-15.96,.24-28.18,4.29-36.34,12.02-5,4.74-7.83,10.16-10.56,15.41-3.93,7.54-8.82,16.92-20.25,18.07-.72,.07-1.42,.11-2.1,.11Z" fill="#f6b55a"/>
</svg>